<svg xmlns="http://www.w3.org/2000/svg" version="1.1" xmlns:xlink="http://www.w3.org/1999/xlink" xmlns:svgjs="http://svgjs.dev/svgjs" width="1000" height="116" viewBox="0 0 1000 116"><g transform="matrix(1,0,0,1,-0.6060606060606233,0.18253254694654686)"><svg viewBox="0 0 396 46" data-background-color="#97978d" preserveAspectRatio="xMidYMid meet" height="116" width="1000" xmlns="http://www.w3.org/2000/svg" xmlns:xlink="http://www.w3.org/1999/xlink"><g id="tight-bounds" transform="matrix(1,0,0,1,0.2400000000000091,-0.07238359620293977)"><svg viewBox="0 0 395.52 46.14476553127838" height="46.14476553127838" width="395.52"><g><svg viewBox="0 0 651.5254623065041 76.0125649671101" height="46.14476553127838" width="395.52"><g transform="matrix(1,0,0,1,254.02786230650415,3.9405961358554578)"><svg viewBox="0 0 397.4975999999999 68.13137269539918" height="68.13137269539918" width="397.4975999999999"><g><svg viewBox="0 0 397.4975999999999 68.13137269539918" height="68.13137269539918" width="397.4975999999999"><g><rect width="397.4975999999999" height="3.1989999834846072" x="0" y="39.24154679811279" fill="#ffffff" opacity="1" stroke-width="0" stroke="transparent" fill-opacity="1" class="rect-o-0" data-fill-palette-color="primary" rx="1%" id="o-0" data-palette-color="#ffffff"></rect></g><g transform="matrix(1,0,0,1,0.9887999999999693,0)"><svg viewBox="0 0 395.52 35.4730913201859" height="35.4730913201859" width="395.52"><g transform="matrix(1,0,0,1,0,0)"><svg width="395.52" viewBox="3.299999952316284 -35 398.0299987792969 35.70000076293945" height="35.4730913201859" data-palette-color="#ffffff"><path d="M20.15-32.6Q16.4-32.6 13.2-30.68 10-28.75 8.1-25.23 6.2-21.7 6.2-17.15L6.2-17.15Q6.2-12.65 8.05-9.15 9.9-5.65 13.1-3.7 16.3-1.75 20.25-1.75L20.25-1.75Q28-1.75 32.7-8.3L32.7-8.3 34.55-6.7Q32.35-3.5 28.85-1.4 25.35 0.7 20.25 0.7L20.25 0.7Q15.55 0.7 11.68-1.53 7.8-3.75 5.55-7.83 3.3-11.9 3.3-17.15L3.3-17.15Q3.3-22.4 5.6-26.48 7.9-30.55 11.7-32.77 15.5-35 19.9-35L19.9-35Q24.05-35 27.1-33.27 30.15-31.55 32-28.7L32-28.7 32.05-34.3 34.65-34.3 34.55-23.8 32.95-23.7Q31.05-28 27.95-30.3 24.85-32.6 20.15-32.6L20.15-32.6ZM73.2-2.4L79.5-2.4 79.5 0 64.05 0 64.05-2.4 70.2-2.4 65.85-12.8 49.3-12.8 44.95-2.4 51.4-2.4 51.4 0 35.85 0 35.85-2.4 42.25-2.4 55-31.95 48.55-31.95 48.55-34.3 66.7-34.3 66.7-31.95 60.3-31.95 73.2-2.4ZM50.25-15.05L64.9-15.05 57.9-31.95 57.25-31.95 50.25-15.05ZM118.19-4.75L119.75-2.95Q116.94 0.65 112.75 0.65L112.75 0.65Q108.75 0.65 105.92-2.33 103.09-5.3 101.09-11.45L101.09-11.45 99.69-15.5 91.19-15.5 91.19-2.4 98.3-2.4 98.3 0 81.3 0.05 81.3-2.35 88.39-2.35 88.39-31.9 81.3-31.9 81.3-34.3 100.64-34.3Q104.34-34.3 107.02-33.08 109.69-31.85 111.09-29.7 112.5-27.55 112.5-24.8L112.5-24.8Q112.5-22.45 111.3-20.45 110.09-18.45 107.8-17.13 105.5-15.8 102.25-15.55L102.25-15.55 103.69-11.7Q105.55-6.7 107.75-4.33 109.94-1.95 112.84-1.95L112.84-1.95Q114.65-1.95 115.92-2.73 117.19-3.5 118.19-4.75L118.19-4.75ZM91.19-31.9L91.19-17.7 100.69-17.7Q103.44-17.7 105.47-18.65 107.5-19.6 108.59-21.2 109.69-22.8 109.69-24.8L109.69-24.8Q109.69-27.9 107.3-29.9 104.89-31.9 100.69-31.9L100.69-31.9 91.19-31.9ZM170.54-2.4L176.84-2.4 176.84 0 161.39 0 161.39-2.4 167.54-2.4 163.19-12.8 146.64-12.8 142.29-2.4 148.74-2.4 148.74 0 133.19 0 133.19-2.4 139.59-2.4 152.34-31.95 145.89-31.95 145.89-34.3 164.04-34.3 164.04-31.95 157.64-31.95 170.54-2.4ZM147.59-15.05L162.24-15.05 155.24-31.95 154.59-31.95 147.59-15.05ZM218.29-34.3L218.29-31.9 211.19-31.9 211.19-12.95Q211.19-9.1 209.39-6 207.59-2.9 204.24-1.13 200.89 0.65 196.44 0.65L196.44 0.65Q191.99 0.65 188.64-1.13 185.29-2.9 183.49-6 181.69-9.1 181.69-12.95L181.69-12.95 181.69-31.9 174.59-31.9 174.59-34.3 191.54-34.3 191.54-31.9 184.54-31.9 184.49-12.85Q184.49-9.7 185.99-7.18 187.49-4.65 190.21-3.23 192.94-1.8 196.44-1.8L196.44-1.8Q199.94-1.8 202.66-3.23 205.39-4.65 206.89-7.15 208.39-9.65 208.39-12.8L208.39-12.8 208.34-31.9 201.29-31.9 201.29-34.3 218.29-34.3ZM238.49-32.6Q234.74-32.6 231.54-30.68 228.34-28.75 226.44-25.23 224.54-21.7 224.54-17.15L224.54-17.15Q224.54-12.65 226.39-9.15 228.24-5.65 231.44-3.7 234.64-1.75 238.59-1.75L238.59-1.75Q246.34-1.75 251.04-8.3L251.04-8.3 252.89-6.7Q250.69-3.5 247.19-1.4 243.69 0.7 238.59 0.7L238.59 0.7Q233.89 0.7 230.01-1.53 226.14-3.75 223.89-7.83 221.64-11.9 221.64-17.15L221.64-17.15Q221.64-22.4 223.94-26.48 226.24-30.55 230.04-32.77 233.84-35 238.24-35L238.24-35Q242.39-35 245.44-33.27 248.49-31.55 250.34-28.7L250.34-28.7 250.39-34.3 252.99-34.3 252.89-23.8 251.29-23.7Q249.39-28 246.29-30.3 243.19-32.6 238.49-32.6L238.49-32.6ZM257.83-34.3L291.48-34.3 291.48-24.6 288.88-24.6 288.88-31.9 276.08-31.9 276.08-2.4 283.48-2.4 283.48 0 265.93 0 265.93-2.4 273.28-2.4 273.28-31.9 260.48-31.9 260.48-24.6 257.83-24.6 257.83-34.3ZM312.93-31.9L305.78-31.9 305.78-2.4 312.93-2.4 312.93 0 295.88 0 295.88-2.4 302.98-2.4 302.98-31.9 295.88-31.9 295.88-34.3 312.93-34.3 312.93-31.9ZM335.13 0.65Q330.38 0.65 326.48-1.53 322.58-3.7 320.33-7.75 318.08-11.8 318.08-17.15L318.08-17.15Q318.08-22.55 320.33-26.6 322.58-30.65 326.48-32.83 330.38-35 335.13-35L335.13-35Q339.88-35 343.75-32.83 347.63-30.65 349.9-26.6 352.18-22.55 352.18-17.15L352.18-17.15Q352.18-11.8 349.9-7.75 347.63-3.7 343.73-1.53 339.83 0.65 335.13 0.65L335.13 0.65ZM335.13-1.8Q339.13-1.8 342.33-3.7 345.53-5.6 347.38-9.08 349.23-12.55 349.23-17.15L349.23-17.15Q349.23-21.75 347.38-25.25 345.53-28.75 342.33-30.65 339.13-32.55 335.13-32.55L335.13-32.55Q331.08-32.55 327.83-30.65 324.58-28.75 322.75-25.28 320.93-21.8 320.93-17.15L320.93-17.15Q320.93-12.55 322.75-9.08 324.58-5.6 327.83-3.7 331.08-1.8 335.13-1.8L335.13-1.8ZM401.33-34.3L401.33-31.9 394.28-31.9 394.28 0.35 393.18 0.35 367.23-30 367.23-2.4 373.82-2.4 373.82 0 357.38 0 357.38-2.4 364.48-2.4 364.48-31.9 357.38-31.9 357.38-34.3 367.23-34.3 367.23-34.25 391.57-5.5 391.57-31.9 384.48-31.9 384.48-34.3 401.33-34.3Z" opacity="1" transform="matrix(1,0,0,1,0,0)" fill="#ffffff" class="undefined-text-0" data-fill-palette-color="primary" id="text-0"></path></svg></g></svg></g><g transform="matrix(1,0,0,1,0,46.20900225952429)"><svg viewBox="0 0 191.39209161264515 21.922370435874885" height="21.922370435874885" width="191.39209161264515"><g transform="matrix(1,0,0,1,0,0)"><svg width="191.39209161264515" viewBox="4.349999904632568 -35.150001525878906 312.5199890136719 35.80000305175781" height="21.922370435874885" data-palette-color="#ffffff"><path d="M16.65-34.95L16.65-34.95Q20.35-34.95 22.93-34.05 25.5-33.15 27.08-31.1 28.65-29.05 29.38-25.65 30.1-22.25 30.1-17.25L30.1-17.25Q30.1-12.25 29.38-8.85 28.65-5.45 27.08-3.4 25.5-1.35 22.93-0.45 20.35 0.45 16.65 0.45L16.65 0.45Q13.1 0.45 10.08 0.33 7.05 0.2 4.35 0L4.35 0 6.25-3.6Q8.35-3.55 10.93-3.48 13.5-3.4 16.65-3.4L16.65-3.4Q19.95-3.4 21.9-4.67 23.85-5.95 24.68-8.97 25.5-12 25.5-17.25L25.5-17.25Q25.5-22.5 24.68-25.53 23.85-28.55 21.9-29.85 19.95-31.15 16.65-31.15L16.65-31.15Q13.55-31.15 11.08-31.1 8.6-31.05 6.25-31L6.25-31 4.35-34.5Q7.05-34.7 10.08-34.83 13.1-34.95 16.65-34.95ZM4.35-34.5L8.75-34.5 8.75 0 4.35 0 4.35-34.5ZM37.1-24.35L40.4-24.35 40.95-19.7 41.35-18.95 41.35 0 37.1 0 37.1-24.35ZM51.25-24.95L52.35-24.95 51.85-20.95 50.45-20.95Q48.3-20.95 46.15-20.08 44-19.2 40.9-17.6L40.9-17.6 40.55-20.25Q43.25-22.45 45.97-23.7 48.7-24.95 51.25-24.95L51.25-24.95ZM66.5-24.95L66.5-24.95Q72-24.95 74.47-22.95 76.95-20.95 76.95-17L76.95-17Q77-13.75 75.59-11.93 74.2-10.1 71.15-10.1L71.15-10.1 56.95-10.1 56.95-13.4 70.05-13.4Q71.7-13.4 72.2-14.53 72.7-15.65 72.7-17L72.7-17Q72.65-19.35 71.3-20.35 69.95-21.35 66.7-21.35L66.7-21.35Q64.05-21.35 62.52-20.58 61-19.8 60.37-17.88 59.75-15.95 59.75-12.5L59.75-12.5Q59.75-8.6 60.52-6.55 61.3-4.5 63-3.75 64.7-3 67.5-3L67.5-3Q69.45-3 71.77-3.18 74.09-3.35 75.95-3.6L75.95-3.6 76.4-0.75Q75.25-0.3 73.57 0 71.9 0.3 70.12 0.45 68.34 0.6 66.95 0.6L66.95 0.6Q62.75 0.6 60.2-0.68 57.65-1.95 56.47-4.78 55.3-7.6 55.3-12.25L55.3-12.25Q55.3-17.05 56.47-19.83 57.65-22.6 60.12-23.78 62.6-24.95 66.5-24.95ZM94.84-24.95L94.84-24.95Q97.54-24.95 99.42-24.23 101.29-23.5 102.24-21.8 103.19-20.1 103.19-17.15L103.19-17.15 103.19 0 99.84 0 99.19-5.3 98.89-5.85 98.89-17.15Q98.89-19.4 97.87-20.38 96.84-21.35 93.94-21.35L93.94-21.35Q92.04-21.35 89.17-21.15 86.29-20.95 83.49-20.7L83.49-20.7 83.09-23.85Q84.79-24.15 86.82-24.4 88.84-24.65 90.94-24.8 93.04-24.95 94.84-24.95ZM88.74-15L101.19-15 101.14-11.8 89.49-11.75Q87.74-11.7 87.04-10.83 86.34-9.95 86.34-8.4L86.34-8.4 86.34-6.85Q86.34-4.95 87.24-4.08 88.14-3.2 90.14-3.2L90.14-3.2Q91.54-3.2 93.32-3.73 95.09-4.25 96.89-5.35 98.69-6.45 100.19-8.15L100.19-8.15 100.19-5Q99.64-4.3 98.62-3.38 97.59-2.45 96.17-1.58 94.74-0.7 93.02-0.13 91.29 0.45 89.29 0.45L89.29 0.45Q87.14 0.45 85.49-0.33 83.84-1.1 82.92-2.63 81.99-4.15 81.99-6.35L81.99-6.35 81.99-9Q81.99-11.85 83.77-13.43 85.54-15 88.74-15L88.74-15ZM140.44-24.95L140.44-24.95Q143.59-24.95 145.27-23.25 146.94-21.55 146.94-18.25L146.94-18.25 146.94 0 142.74 0 142.74-17.05Q142.69-19.3 141.84-20.33 140.99-21.35 138.94-21.35L138.94-21.35Q137.64-21.35 136.47-20.93 135.29-20.5 133.89-19.6 132.49-18.7 130.49-17.25L130.49-17.25 130.24-20.25Q132.89-22.6 135.39-23.78 137.89-24.95 140.44-24.95ZM110.79-24.35L114.29-24.35 114.59-19.7 115.04-18.95 115.04 0 110.79 0 110.79-24.35ZM124.49-24.95L124.49-24.95Q127.59-24.95 129.24-23.28 130.89-21.6 130.94-18.25L130.94-18.25 130.94 0 126.84 0 126.84-17.05Q126.84-19.4 125.89-20.38 124.94-21.35 123.04-21.35L123.04-21.35Q121.79-21.35 120.62-20.95 119.44-20.55 118.02-19.65 116.59-18.75 114.54-17.25L114.54-17.25 114.24-20.25Q116.89-22.6 119.39-23.78 121.89-24.95 124.49-24.95ZM162.69-24.95L162.69-24.95Q164.29-24.95 166.09-24.85 167.89-24.75 169.66-24.6 171.44-24.45 172.94-24.2L172.94-24.2 172.59-21.1Q170.29-21.2 167.96-21.28 165.64-21.35 163.34-21.35L163.34-21.35Q161.09-21.4 159.79-21.25 158.49-21.1 157.91-20.45 157.34-19.8 157.34-18.25L157.34-18.25Q157.34-16.35 158.24-15.75 159.14-15.15 160.89-14.75L160.89-14.75 167.99-13.15Q170.89-12.45 172.26-11 173.64-9.55 173.64-6.45L173.64-6.45Q173.64-3.45 172.51-1.95 171.39-0.45 169.09 0.05 166.79 0.55 163.24 0.55L163.24 0.55Q161.94 0.55 159.36 0.45 156.79 0.35 153.69-0.15L153.69-0.15 153.99-3.25Q155.19-3.2 156.54-3.13 157.89-3.05 159.36-3.05 160.84-3.05 162.39-3.05L162.39-3.05Q165.14-3.05 166.69-3.3 168.24-3.55 168.89-4.28 169.54-5 169.54-6.45L169.54-6.45Q169.54-8.25 168.49-8.85 167.44-9.45 165.69-9.85L165.69-9.85 158.69-11.45Q156.69-11.95 155.49-12.78 154.29-13.6 153.74-14.93 153.19-16.25 153.19-18.25L153.19-18.25Q153.19-21.1 154.19-22.55 155.19-24 157.29-24.5 159.39-25 162.69-24.95ZM204.73-35.15L204.73-35.15Q206.48-35.15 208.13-35.05 209.78-34.95 211.33-34.73 212.88-34.5 214.33-34.1L214.33-34.1 213.88-30.8Q212.33-30.95 210.76-31.05 209.18-31.15 207.73-31.18 206.28-31.2 204.98-31.2L204.98-31.2Q202.18-31.2 200.26-30.68 198.33-30.15 197.18-28.65 196.03-27.15 195.51-24.35 194.98-21.55 194.98-17.05L194.98-17.05Q194.98-11.95 195.68-8.93 196.38-5.9 198.03-4.55 199.68-3.2 202.43-3.2L202.43-3.2Q204.33-3.2 205.91-3.75 207.48-4.3 208.86-5.18 210.23-6.05 211.53-7L211.53-7 212.13-4.3Q211.23-3.25 209.66-2.1 208.08-0.95 205.98-0.15 203.88 0.65 201.23 0.65L201.23 0.65Q197.38 0.65 194.96-1.28 192.53-3.2 191.43-7.18 190.33-11.15 190.33-17.35L190.33-17.35Q190.33-24.2 191.71-28.08 193.08-31.95 196.26-33.55 199.43-35.15 204.73-35.15ZM210.93-19.95L215.23-19.95 215.23 0 212.03 0 211.33-5.1 210.93-6.1 210.93-19.95ZM232.83-24.95L232.83-24.95Q237.03-24.95 239.56-23.7 242.08-22.45 243.18-19.63 244.28-16.8 244.28-12.15L244.28-12.15Q244.28-7.5 243.18-4.67 242.08-1.85 239.56-0.6 237.03 0.65 232.83 0.65L232.83 0.65Q228.68 0.65 226.16-0.6 223.63-1.85 222.51-4.67 221.38-7.5 221.38-12.15L221.38-12.15Q221.38-16.8 222.51-19.63 223.63-22.45 226.16-23.7 228.68-24.95 232.83-24.95ZM232.83-21.35L232.83-21.35Q230.18-21.35 228.66-20.53 227.13-19.7 226.48-17.7 225.83-15.7 225.83-12.15L225.83-12.15Q225.83-8.6 226.48-6.6 227.13-4.6 228.66-3.78 230.18-2.95 232.83-2.95L232.83-2.95Q235.48-2.95 237.03-3.78 238.58-4.6 239.23-6.6 239.88-8.6 239.88-12.15L239.88-12.15Q239.88-15.7 239.23-17.7 238.58-19.7 237.03-20.53 235.48-21.35 232.83-21.35ZM274.88-35.15L274.88-35.15Q278.63-35.15 281.25-34.25 283.88-33.35 285.45-31.28 287.03-29.2 287.75-25.75 288.48-22.3 288.48-17.25L288.48-17.25Q288.48-12.2 287.75-8.75 287.03-5.3 285.45-3.23 283.88-1.15 281.25-0.25 278.63 0.65 274.88 0.65L274.88 0.65Q271.13 0.65 268.5-0.25 265.88-1.15 264.28-3.23 262.68-5.3 261.95-8.75 261.23-12.2 261.23-17.25L261.23-17.25Q261.23-22.3 261.95-25.75 262.68-29.2 264.28-31.28 265.88-33.35 268.5-34.25 271.13-35.15 274.88-35.15ZM274.88-31.2L274.88-31.2Q271.48-31.2 269.5-29.9 267.53-28.6 266.7-25.58 265.88-22.55 265.88-17.25L265.88-17.25Q265.88-12 266.7-8.95 267.53-5.9 269.5-4.6 271.48-3.3 274.88-3.3L274.88-3.3Q278.28-3.3 280.25-4.6 282.23-5.9 283.05-8.95 283.88-12 283.88-17.25L283.88-17.25Q283.88-22.55 283.05-25.58 282.23-28.6 280.25-29.9 278.28-31.2 274.88-31.2ZM310.27-24.95L310.27-24.95Q316.87-24.95 316.87-18.25L316.87-18.25 316.87 0 312.62 0 312.62-17.05Q312.62-19.5 311.82-20.43 311.02-21.35 309.12-21.35L309.12-21.35Q306.87-21.35 304.62-20.25 302.37-19.15 299.27-17.25L299.27-17.25 299.07-20.3Q301.92-22.5 304.72-23.73 307.52-24.95 310.27-24.95ZM295.47-24.35L299.07-24.35 299.42-19.7 299.72-18.95 299.72 0 295.47 0 295.47-24.35Z" opacity="1" transform="matrix(1,0,0,1,0,0)" fill="#ffffff" class="undefined-text-1" data-fill-palette-color="secondary" id="text-1"></path></svg></g></svg></g></svg></g></svg></g><g><svg viewBox="0 0 245.65351679999995 76.0125649671101" height="76.0125649671101" width="245.65351679999995"><g><svg xmlns="http://www.w3.org/2000/svg" xmlns:xlink="http://www.w3.org/1999/xlink" version="1.1" x="0" y="0" viewBox="0 0 100 30.9429988861084" enable-background="new 0 0 100 30.943" xml:space="preserve" width="245.65351679999995" height="76.0125649671101" class="icon-icon-0" data-fill-palette-color="accent" id="icon-0"><path d="M61.049 3.697c0.042 0.078 0.102 0.132 0.25 0.102l0.943-0.189c0.12-0.024 0.229-0.123 0.205-0.24l-0.624-1.727C61.8 1.525 61.6 1.39 61.479 1.414L60.758 1.46c-0.072 0.015-0.125 0.062-0.154 0.12 0.115 0.354 0.217 0.738 0.299 1.146C60.977 3.09 60.99 3.216 61.049 3.697z" fill="#ffffff" data-fill-palette-color="accent"></path><path d="M97.203 19.568L93.42 9.567l-0.023-0.062-0.221-0.583L92.446 8.87c-0.014-0.001-0.026-0.004-0.041-0.004-0.003 0-0.005 0-0.007 0l-9.422-0.668-6.865-0.486-0.379-2.316V5.395c-0.057-0.345-0.555-0.343-0.744-0.329-0.045 0.003-0.074 0.007-0.074 0.007l-10.139 0.99c0 0 0 0 0 0.001-0.39 0.038-0.395 0.662-0.395 0.662v1.047l-1.835 0.033 0.043-3.208 0 0c0.006-0.438-0.196-0.519-0.304-0.53-0.039-0.005-0.064 0-0.064 0h-0.775c-0.393 0-0.449 0.464-0.451 0.476v0.002l-0.428 3.297L45.328 8.116l0.321-2.949c0.011-0.103-0.063-0.194-0.166-0.206L45.21 4.932c-0.103-0.011-0.195 0.062-0.206 0.166l-0.33 3.03-2.737 0.05L43.88 0 33.296 7.736 3.505 11.64l-1.968 7.929H0l0.485 4.02 0 0.001c0.002 0.013 0.237 1.523 1.496 1.632l0 0 6.087 0.525c-0.248-0.798-0.382-1.645-0.382-2.522 0-4.686 3.812-8.497 8.498-8.497 4.686 0 8.498 3.812 8.498 8.497 0 0.905-0.144 1.776-0.407 2.595h47.393l0 0c-0.264-0.818-0.406-1.689-0.406-2.595 0-4.686 3.812-8.497 8.498-8.497 4.686 0 8.497 3.812 8.497 8.497 0 0.495-0.045 0.979-0.126 1.451l10.396-0.723 0 0c0.666-0.019 0.837-0.682 0.869-0.85 0.005-0.021 0.007-0.034 0.007-0.036l0.001-0.002L100 19.568H97.203z" fill="#ffffff" data-fill-palette-color="accent"></path><path d="M16.185 15.505c-4.264 0-7.72 3.455-7.72 7.719s3.456 7.719 7.72 7.719c4.262 0 7.719-3.455 7.719-7.719S20.447 15.505 16.185 15.505zM16.185 28.089c-2.684 0-4.865-2.184-4.865-4.865 0-2.684 2.182-4.865 4.865-4.865 2.682 0 4.864 2.182 4.864 4.865C21.049 25.905 18.867 28.089 16.185 28.089z" fill="#ffffff" data-fill-palette-color="accent"></path><path d="M79.76 15.505c-4.264 0-7.721 3.455-7.721 7.719s3.457 7.719 7.721 7.719c4.262 0 7.719-3.455 7.719-7.719S84.021 15.505 79.76 15.505zM79.76 28.089c-2.684 0-4.865-2.184-4.865-4.865 0-2.684 2.182-4.865 4.865-4.865 2.682 0 4.863 2.182 4.863 4.865C84.623 25.905 82.441 28.089 79.76 28.089z" fill="#ffffff" data-fill-palette-color="accent"></path></svg></g></svg></g></svg></g><defs></defs></svg><rect width="395.52" height="46.14476553127838" fill="none" stroke="none" visibility="hidden"></rect></g></svg></g></svg>